<svg xmlns="http://www.w3.org/2000/svg" xmlns:xlink="http://www.w3.org/1999/xlink" xmlns:inkscape="http://www.inkscape.org/namespaces/inkscape" version="1.1" width="2000" height="2000" viewBox="0 0 2000 2000">
<defs>
<clipPath id="clip_0">
<path transform="matrix(1,0,0,-1,0,2000)" d="M0 2000H2000V0H0Z"/>
</clipPath>
<clipPath id="clip_1">
<path transform="matrix(1,0,0,-1,0,2000)" d="M0 2000H2000V0H0Z"/>
</clipPath>
</defs>
<g inkscape:groupmode="layer" inkscape:label="Layer 1">
<g clip-path="url(#clip_0)">
<path transform="matrix(1,0,0,-1,125.2103,955.79336)" d="M0 0-82.742-121.97C-87.037-128.299-89.869-135.107-91.218-142.276-92.573-149.479-92.391-156.89-90.673-164.389-88.946-171.896-85.894-178.626-81.555-184.489-77.188-190.402-71.659-195.314-65.036-199.138L-64.639-199.366C-58.015-203.19-50.996-205.525-43.692-206.349-36.445-207.175-29.092-206.454-21.726-204.196-14.393-201.941-7.898-198.404-2.335-193.661 3.213-188.907 7.7-183.033 11.045-176.119L88.619-15.997C95.847-1.072 93.657 10.586 86.595 20.391 80.838 28.385 72.34 33.805 63.693 38.798 62.106 39.713 61.041 41.187 60.605 42.816 60.168 44.444 60.354 46.25 61.271 47.835 63.882 52.359 68.82 50.486 73.58 47.737 76.605 45.991 78.838 44.531 80.98 43.138 83.784 41.313 86.491 39.547 88.318 38.49 99.032 32.305 121.994 23.395 144.475 18.266 161.85 14.298 179.475 12.516 192.348 15.657L192.659 15.735C201.062 17.855 207.381 22.619 211.59 28.811 215.341 34.327 217.258 40.922 217.356 47.656 217.451 54.132 215.862 60.772 212.618 66.662L211.864 67.872C207.548 75.079 200.746 81.129 191.533 84.358 185.873 86.339 179.707 87.777 172.669 89.423L171.458 89.649C156.89 93.055 138.41 97.527 121.253 107.431 91.381 124.677 71.327 152.401 63.056 183.267 54.786 214.138 58.292 248.17 75.536 278.039 92.783 307.911 120.505 327.965 151.372 336.237 182.241 344.506 216.276 341 246.147 323.754 273.023 308.236 291.764 284.837 299.494 258.594 306.853 233.622 304.231 205.835 289.111 179.649 277.608 159.722 260.541 145.093 241.057 136.602 220.988 127.853 198.335 125.526 176.532 130.534 169.05 132.252 161.592 127.573 159.872 120.091 158.155 112.61 162.834 105.15 170.316 103.433 197.99 97.077 226.7 100.015 252.114 111.094 276.986 121.937 298.715 140.501 313.265 165.705 332.406 198.858 335.638 234.346 326.175 266.456 316.431 299.529 293.213 328.785 260.091 347.906 223.564 368.996 181.926 373.287 144.156 363.168 106.387 353.047 72.474 328.513 51.383 291.984 30.291 255.449 26.008 213.819 36.125 176.052 46.246 138.282 70.779 104.368 107.309 83.279 127.677 71.519 148.654 66.454 165.148 62.601L166.306 62.275C172.89 60.737 178.665 59.388 182.293 58.119 184.837 57.228 186.7 55.686 187.885 53.872L188.236 53.189C189.141 51.549 189.587 49.766 189.563 48.102 189.543 46.7 189.192 45.398 188.515 44.399 188.008 43.646 187.124 43.034 185.856 42.705L185.816 42.694C177.542 40.675 164.36 42.247 150.691 45.367 130.999 49.859 111.261 57.447 102.263 62.644 99.844 64.04 98.014 65.237 96.096 66.486 93.102 68.435 89.961 70.484 87.525 71.89 70.36 81.8 51.73 87.088 37.117 61.78 32.355 53.532 31.39 44.125 33.674 35.6 35.959 27.07 41.499 19.407 49.749 14.645 55.734 11.188 61.465 7.651 64.002 4.129 65.231 2.422 65.418-.023 63.582-3.808L-13.992-163.93C-15.679-167.413-17.843-170.29-20.424-172.53L-20.463-172.566C-23.038-174.775-26.2-176.467-29.889-177.6-33.576-178.731-37.158-179.104-40.57-178.717-43.915-178.337-47.31-177.169-50.694-175.215L-51.091-174.985C-54.477-173.03-57.185-170.676-59.187-167.968-61.229-165.207-62.695-161.919-63.56-158.161-64.422-154.396-64.537-150.816-63.91-147.478-63.278-144.115-61.859-140.79-59.667-137.56L23.075-15.588C27.375-9.218 25.702-.558 19.332 3.743 12.962 8.046 4.302 6.37 0 0" fill="#c97129" fill-rule="evenodd"/>
</g>
<text fill="#4d4d4d" xml:space="preserve" transform="matrix(1 0 -0 1 0 2000)" font-size="60" font-family="MVBoli"><tspan y="-1053.1582" x="561.0923 600.57229 626.13229 655.7723 681.2723 696.4523 721.2923 736.4723 768.2123 801.3323 830.6123 867.3323 899.01229 928.11227 951.87228 975.63229 990.81228 1023.93228 1052.3123 1074.1522 1103.4323 1142.9122 1172.5523 1198.1123 1221.8723 1251.5123 1277.0123 1308.6924 1337.9724 1379.7924 1409.4324 1434.2723 1467.5123 1482.6323 1514.3124 1539.1524">Precision Staffing. Perfect Results.</tspan></text>
<g clip-path="url(#clip_1)">
<path transform="matrix(1,0,0,-1,120.6357,862.1483)" d="M0 0C3.929-6.608 1.754-15.156-4.853-19.083-11.46-23.012-20.008-20.839-23.937-14.23-46.517 23.917-58.582 67.573-58.835 111.926-59.08 154.818-48.324 198.281-25.411 237.966 9.056 297.666 64.461 337.74 126.171 354.277 187.881 370.81 255.901 363.806 315.599 329.341 375.293 294.876 415.374 239.468 431.907 177.756 448.444 116.047 441.437 48.021 406.976-11.671 384.062-51.357 351.799-82.405 314.533-103.637 275.995-125.595 232.155-136.975 187.828-136.493 180.142-136.395 173.984-130.079 174.082-122.393 174.18-114.706 180.498-108.55 188.183-108.647 227.636-109.076 266.601-98.976 300.805-79.489 333.776-60.703 362.395-33.108 382.822 2.274 413.44 55.305 419.664 115.733 404.976 170.54 390.292 225.349 354.69 274.569 301.655 305.188 248.623 335.806 188.196 342.03 133.388 327.346 78.578 312.658 29.36 277.055-1.258 224.022-21.685 188.641-31.275 150.059-31.057 112.112-30.834 72.747-20.096 33.953 0 0" fill="#4d4d4d" fill-rule="evenodd"/>
</g>
<text fill="#c97129" xml:space="preserve" transform="matrix(.9976022 0 -0 1.0024035 0 2000)" font-size="158.37375" font-family="ElMessiri"><tspan y="-1135.9631" x="562.4404 651.28817 729.84158 860.65829 941.2705 1007.47079 1049.7566 1128.3099 1206.8633 1297.9281 1337.5216 1453.7681 1518.5429 1605.9651 1695.4463">Samerican Group</tspan></text>
</g>
</svg>
